<?xml version="1.0" standalone="no"?>
<!DOCTYPE svg PUBLIC "-//W3C//DTD SVG 20010904//EN"
 "http://www.w3.org/TR/2001/REC-SVG-20010904/DTD/svg10.dtd">
<svg version="1.0" xmlns="http://www.w3.org/2000/svg"
 width="180.000000pt" height="180.000000pt" viewBox="0 0 180.000000 180.000000"
 preserveAspectRatio="xMidYMid meet">

<g transform="translate(0.000000,180.000000) scale(0.100000,-0.100000)"
fill="#000000" stroke="none">
<path d="M525 1785 c-60 -21 -120 -90 -134 -154 -7 -31 -11 -160 -11 -321 l0
-269 493 -3 c553 -3 532 -1 576 -78 19 -34 21 -54 21 -218 0 -202 -7 -235 -62
-274 l-33 -23 -497 -3 -498 -3 0 -109 c0 -157 12 -202 69 -260 31 -33 60 -52
88 -59 30 -8 186 -11 510 -9 l468 3 45 25 c24 14 58 45 75 68 l30 44 3 584 2
584 -214 0 c-118 0 -222 3 -231 6 -38 15 -45 54 -45 274 l0 210 -307 0 c-239
-1 -317 -4 -348 -15z"/>
<path d="M860 923 c-46 -17 -65 -96 -36 -151 8 -15 33 -45 55 -67 40 -38 55
-85 32 -99 -18 -11 -41 6 -41 30 0 20 -5 24 -30 24 -27 0 -30 -3 -30 -34 0
-19 9 -44 19 -57 16 -20 29 -24 71 -24 65 0 89 26 90 96 0 42 -5 52 -55 108
-53 60 -69 101 -45 116 15 9 40 -14 40 -36 0 -14 7 -19 30 -19 25 0 30 4 30
25 0 71 -62 113 -130 88z"/>
<path d="M610 890 c0 -27 3 -30 30 -30 l30 0 0 -155 0 -155 35 0 35 0 0 155 0
155 30 0 c27 0 30 3 30 30 l0 30 -95 0 -95 0 0 -30z"/>
</g>
</svg>
